<svg width="24" height="24" viewBox="0 0 24 24" fill="none" xmlns="http://www.w3.org/2000/svg">
<path fill-rule="evenodd" clip-rule="evenodd" d="M11.609 9.22205H14.4786C15.5078 9.22205 16.3421 10.0512 16.3421 11.074C16.3421 12.0968 15.5078 12.9259 14.4786 12.9259L11.609 12.9259C10.9813 12.9259 10.4725 13.4316 10.4725 14.0555C10.4725 14.6793 10.9813 15.185 11.6091 15.185C13.5014 15.185 15.0357 16.7086 15.0377 18.5888V18.5961C15.0357 20.4763 13.5014 21.9999 11.609 21.9999H10.5656C10.2568 21.9999 10.0065 21.7512 10.0065 21.4443C10.0065 21.1374 10.2568 20.8887 10.5656 20.8887H11.609C12.2367 20.8887 12.7456 20.383 12.7456 19.7591C12.7456 19.1353 12.2368 18.6296 11.6091 18.6296C8.99654 18.6296 6.8784 16.526 6.87604 13.9302V13.9215C6.8784 11.3257 8.99654 9.22205 11.609 9.22205Z" fill="white"/>
<path fill-rule="evenodd" clip-rule="evenodd" d="M11.6087 2H18.537C19.8973 2 21 3.1027 21 4.46295C21 5.8232 19.8973 6.9259 18.5371 6.9259L11.6087 6.9259L11.6087 2ZM11.6087 8.25933L11.6087 6.9259L11.6087 2.00004L11.6085 2.00004C6.87488 2.00004 3.03361 5.79695 3 10.4934V10.6177C3.02455 14.0492 5.08185 17.0005 8.03472 18.3413C6.73836 17.3036 5.90846 15.7136 5.90692 13.9309V13.9209C5.90963 10.7936 8.46136 8.25933 11.6087 8.25933ZM11.6087 13.8888C11.6086 13.8888 11.6086 13.8888 11.6085 13.8888V14.2223C11.6086 14.2223 11.6086 14.2223 11.6087 14.2223L11.6087 13.8888ZM11.6089 6.92591H12.6504C12.0819 6.92893 11.6206 7.38207 11.6089 7.94502V6.92591Z" fill="white"/>
</svg>
