<svg width="2363" height="2353" xmlns="http://www.w3.org/2000/svg"><path fill="#C3C3CD" stroke="#C3C3CD" opacity=".945" d="m1650.5 637 4.5.5-4.5.5zm14 1 2.5.5-2.5.5zm190 76 1 2zm5 4 2 3zm6 5 3 4zm-1495 2 .5 147.5h-1zm1504 6 21 22zm27 28 2 3zm6 7 1 2zm5 6 1 2zm3 4 2 3zm4 5 1 2zm-178 73 1 2zm5 4 2 3zm8 7 8 9zm13 14 2 3zm5 6 1 2zm3 4 1 2zm209 38 .5 2.5h-1zm4 27 .5 2.5h-1zm-1618 4 .5 172.5h-1zm1619 6 .5 2.5h-1zm-181 1 .5 2.5h-1zm2 14 .5 2.5h-1zm0 32 .5 2.5h-1zm-1 9 .5 2.5h-1zm176 38 .5 2.5h-1zm-208 43-1 2zm-2 3-2 3zm-4 5-1 2zm-5 6-4 5zm-14 14-3 4zm-8 7-1 2zm-80 37 2.5.5-2.5.5zm-1294 2 .5 400.5h-1zm1272 1 2.5.5-2.5.5zm284 26-1 2zm-2 3-1 2zm-3 4-1 2zm-3 4-1 2zm-7 9-1 2zm-4 5-3 4zm-6 7-4 5zm-13 14-5 6zm-16 15-4 5zm-8 7-3 4zm-6 5-2 3zm-10 8-1 2zm-8 6-1 2zm-98 51 8 9zm-238 17 30 31zm-954 18 .5 2.5h-1zm1261 34 166 167zm-222 33 49 50zm102 102 83 84zm291 53-51.5 52.5-.5 1.5-.5-1.5zm-1612 3 .5 69.5h-1zm1438 61 55 55 27.5-26.5-27.5 27.5z"/><path fill="#FFF" stroke="#FFF" opacity=".996" d="m1869.5 727 1 2zm30 30 1 2zm6 7 1 2zm-154 98 2 3zm12 12 2 3zm-15 259-1 2zm148 106-3 4zm-20 20-2 3zm-10 9-1 2zm-109 66q3.3-1.1 2.5 1.5l-2.5 3.5-12 4-2.5-4q3.4.8 4.5-2h2z"/><path fill="#FFF" stroke="#FFF" d="m1311.5 0 52 1 1 1h9l1 1h7l1 1 24 3 56 14 52 19q105.8 44.7 178.5 122.5l6.5 7.5q170.7 24.3 263.5 126.5 25.4 28.6 43 65l12 30 7 25 1 9 1.5 1.5 27 10 44 24q38.3 25.2 68.5 58.5 61.6 67.9 95 164l17 58 12 62 3 31 1 1v10l1 1v16l1 1v43l-1 1v17l-1 1-1 21-1 1v8l-1 1v7l-1 1-2 18q15 16 26 36l19 41 10 32 7 33v6l3 15v8l1 1v9l1 1 1 34 1 1v56l-1 1v21l-1 1-1 27-1 1v9l-1 1v9l-1 1-2 23-1 1v6l-1 1-5 35-10 47-14 52-14 43q-16.2 46.3-36 89-41.8 90.2-96 168-64 91.5-142.5 168.5-106.4 104.1-236 185-104.7 67.3-232.5 111.5l2.5 1.5 55 10h6l1 1 26 3 1 1h7l1 1h7l1 1 37 3 1 1 25 1 1 1h17l1 1h26l1 1h62l1-1 61-1 1-1h17l1-1h15l1-1 38-2 1-1h10l1-1h9l1-1h9l1-1h8l9-2h8l1-1h7l1-1 48-6 36-7h5l11-3h5l70-15 84-21 61.5-17v73.5l-3.5.5-57 16-95 23-70 14h-5l-37 7-34 4-1 1-32 3-1 1h-8l-1 1h-8l-1 1h-9l-1 1-34 2-1 1h-12l-1 1h-14l-1 1h-16l-1 1-47 1-1 1h-114l-1-1h-19l-1-1h-15l-1-1-34-2-1-1-42-4-1-1h-6l-1-1h-6l-1-1h-6l-7-2-30-4-87-18-76-20-51 11-30 4-1 1h-6l-1 1h-6l-1 1h-6l-1 1-24 2-1 1-31 2-1 1h-13l-1 1h-16l-1 1-72 1-1-1h-25l-1-1-28-1-1-1h-10l-1-1-32-3-46-9-46-14q-46.7-17.3-86-42l-27-18-44-35-1 1h-23l-1 1h-24l-1-1h-22l-1-1h-12l-1-1h-10l-1-1-15-1-1-1h-6l-28-5-29-7q-58.4-16.1-107-42-123.7-70.8-217.5-171.5-47.7-50.8-86-111-34.4-54.1-59-118l-15-44-12-45-9-46-6-48q-59.3-66.7-87-165l-12-52-4-31-1-1v-7l-1-1-1-19-1-1v-13l-1-1v-20l-1-1v-48l1-1v-20l1-1v-13l1-1v-11l1-1 1-17 1-1 1-15 1-1 4-30 5-21v-6l-7-12-12-29-9-35-2-20-1-1v-62l1-1 1-16 6-34 13-49 18-50 27-56Q134.9 570.9 231.5 477q41.9-41.6 89-78 41.8-32.7 89.5-59.5 34.8-97.7 104.5-160.5 56.9-53.1 141-79l50-13 37-7 29-3 1-1 21-1 1-1h14l1-1h66l1 1h15l1 1h11l1 1 17 1 1 1h7l1 1 30 4 33 8h4l36 10q67.3-44.7 149-75l39-12 21-5 28-5h6l1-1 18-1 1-1h14zm4.5 71-1 1h-12l-1 1h-8l-1 1h-7l-13 3h-5l-40 10q-60 18-109 48 63 29 115 69l29 5 30 8 58-19 42-11 42-9h5l30-6 14-1 8-2h8l1-1h8l1-1 20-1 1-1h13l1-1 42-1q-51-40-116-65l-44-14-36-8-27-3-1-1h-13l-1-1zm-501 72-1 1h-13l-1 1-20 1-1 1h-7l-1 1-30 4-44 10-39 12q-53 20-91 54-31 25-51 59l54-21 53-18 55-16 44-11 52-11h5l41-8 41-5 1-1h7l1-1 26-2 1-1h10l46-35 2-4-29-5-24-2-1-1h-10l-1-1h-13l-1-1zm230 36-9 6v1h25zm518 55-1 1h-15l-1 1-22 1-1 1-17 1-22 4h-6l-43 8-22 5-2 2 45 22q6-8 16-12l10-4 16-3h16l1 1 13 1q35 8 68 20 58 20 107 50l1 1-4-21-7-20q-12-30-30-53l-3-4-25-1-1-1zm191 20 13 35 7 30 3 25 1 1v9l1 1 1 35 34 32 43-8 25-2 1-1h12l1-1h52l1 1q-13-39-38-66-58-66-157-91Zm-773 1-1 1-38 1-6 3q-66 54-128 112l4 1 20 1 1 1h8l29 5h6l33 7h6l22-5 33-4 1-1 46-4q73-61 162-106l-2-2-21-2-1-1-27-2-1-1h-11l-1-1h-12l-1-1h-14l-1-1h-21l-1-1zm-177 19-59 12-48 12-86 27-66 26q-39 17-74 36l-3 3-9 42 1 3 20-11 40-17 54-17 30-7 34-6 21-2 1-1h8l1-1h10l1-1 24-1 105-96zm535 31v3q20 23 36 52l19 37 1 4 39 8-1-14-1-1v-9l-1-1v-13l-1-1v-22q-41-26-91-43Zm-90 8q-57 25-106 58l4 1h20l1 1h15l1 1 37 2 1 1 29 2 1 1 17 1 1 1h7l1 1 29 3q-22-38-52-68l-4-5zm298 29 2 3 14 12q51 48 83 116l5 3 15 6h3l7-6q22-21 30-55-67-52-159-79Zm-41 59 3 27 29 8-6-8zM387 439q-59 41-108 91-89 86-152 199l-22 46-16 44-12 45-5 28-1 18-1 1 1 23q29-75 79-130 24-28 56-49 22-16 51-25l4-24 10-41q8-31 20-57l22-42q16-25 35-45l28-27 8-8v-21l1-1 1-22 1-1zm348 1-102 99q-45 42-84 90l-7 7H409l-9-23-7-28v-4l-1-2q-24 26-38 63-14 35-22 77l4 1 18 1 16 3v151q-26 42-50 88v13l1 1 2 28 1 1 4 36 2 1q17-44 39-83h1v174l-13 37 10 3 3 1v401l-18-1-6-2-10 23 4 1 15 1 1 1h10l1 1 3 1v70l-2-1-23-1-1-1h-7l-19-3v19l3 15 6 19q9 22 23 39 49 56 145 66l1 1-2-28-1-1v-6l-4-23-9-30-10-18 78-1 5 14 7 29 3 24 1 1v7l1 1 2 31 1 2 20-1-19-63-18-77v-318l1-1v-8l1-1h70l-3 36-1 1v9l-1 1v10l-1 1 1 10 16-6 40-11 31-6 14-1 1-1h10l1-1h36l1 1h9l1 1 12 1 15 4q16-26 37-49l104 1-4 3q27 28 66 43v-7l1-1 1-33 1-1q-1-5 1-5h70l-1 7v11l-1 1v16l-1 1v30l2 1h11l1 1 39-1 1-1 14-1 20-4q40-10 73-27l-1-2-51-17-34-14 350-1 31 33-6 5q-97 93-168 212l-1 2 20-7 23-11 53-32q52-36 97-80l22-23 14-14 50 51-16 17q-42 43-89 80-37 28-77 52-33 19-70 33l-44 13-23 4h-6q-21 34-33 76l16-8 103-63 66-35q36-18 77-31l37-9 12-1 1-1h9l1-1h33l29 5 34-36-4-24-4-14 1-5 83 84 2 47 7 3h3l20-18 57 56 29-28 21-3 23-5-4-20-3-8 1-3 53-53h1l15 41 4 19q29-11 51-29 27-25 46-59 23-41 40-87l14-44 13-57 3-25 1-1v-7l1-1 1-21 1-1v-20l1-1-1-37-1-1v-10l-1-1-1-14-1-3q-25 27-56 46l-32 17-27 11-40 19 13 37 4 20 1 23 1 1-1 26-1 1-1 14-5 23-7 22q-16 42-40 77l-1 1-168-167 1-13 1-1v-12l1-1v-13l1-1v-12l1-1 1-17 5-29 3-9h2l1-2h2l1-2h2l1-2h2l14-10 3-4h2l11-9 7-8h2q17-14 30-32l5-5-1-1 2-1 3-3-1-1 2-1 11-15q3-2 1-3l2-1 3-5q3-2 1-3l2-1 3-5v-2l2-1 1-2v-2l2-1 2-4v-2l2-1 12-25v-2l2-1 8-19-1-2 2-1 6-18-1-2 2-1 6-23-1-3 3-6-1-4 2-2 2-18 1-1q1-5-1-6l2-3v-6l4-8 7-23 2-10v-7l1-1v-12l-13 2q-3-1-1-2l-3-29q-4-2-1-3l-3-17q-4-2-1-3l-2-7q1-5-1-4v-1l-1-4 3-1 19-2-3-18-5-18-15-39q-18-38-42-69l-1 43-1 4-4-5-2-2v-1l-2-3-3-3v-1l-3-3v-1l-3-4-4-4v-1l-11-13-31-32-13-10-4-4-1 1-1-1-3-3-4-3 16-16-2-15q-28-25-60-45h-2l10 47q1 4-1 5l-1-2-23-11h-2l-1-2-4-1h-2l-1-2-12-5-2 1-1-2-22-7-2 1v-2h-4l-10-38-11-34-23-11-5 4 3 25 1 1v8l1 1 2 34-6-1q-5-1-6 1l-2-2-26-1-1-1h-168l-4-30-59 4-10 25-1 1h-81l10-18 1-2-57 6-17 3 2 11h-225q49-37 114-58-25-27-56-46-44-27-95-46-60 60-107 132 31 6 56 18H633l6-31 13-37q18-40 45-70 29-34 69-56l-7-2zm342 1v1l19 9 38 22q30 19 56 43 20 19 37 42l45-6 1-1h7l1-1 36-3 1-1h10l1-1 23-1 1-1v-31l-1-1v-8l-8-37-1-2-35-5-1-1-34-4-1-1h-7l-1-1h-7l-1-1h-7l-1-1-27-2-1-1-35-2-1-1h-13l-1-1h-17l-1-1zm-461 12q-94 20-160 68 3 48 18 86 67-81 144-153zm291 7q-48 12-87 32-32 17-57 40-38 34-55 89l1 1 12-4 32-6 16-1 1-1h13l1-1h27l67-93 45-53-9-3zm513 20 3 18v9l1 1 1 30 34-2-6-24-4-25zm490 0-1 1h-14l-1 1-19 1-12 2q17 27 31 58 15 32 25 70 21-32 33-73l7-32 2-25-12-1-1-1h-13l-1-1zm-122 24q-20 6-35 16-3-1-2 2l32 16 42 25q-13-30-32-55 0-4-5-4Zm243 0-7 40-13 42q-19 48-48 88l3 6q20 20 37 45 22 29 38 65l18 46 9 34 4 23 5 1h14l1 1 19 1 40 7 38 11 35 16 1-4v-13l1-1v-52l-1-1v-12l-2-10v-8l-1-1-2-20-6-33-15-57q-14-45-35-82-22-40-52-72-34-37-81-60Zm-506 4 4 20 25-3 14-3zm28 88-10 2 1 9 2 1 9-10q1-3-2-2ZM321 790l-1 6v10l-1 1v12l-1 1 1 3 19-32-3-1zm-74 23-27 21q-40 38-67 90l-25 55-21 64 7 10q16 17 35 31l30 20h2q28-81 66-152l-1-29-1-1v-80l1-1v-19l1-1zm1828 151v15l-1 1v10l-2 8v6l-8 30 28 6 27 10q31 14 55 37l8 9 15-37 15-52-17-13q-20-11-43-18l-36-8-23-2-1-1h-12zm190 114q-16 48-40 88l8 24 7 30 2 18 1 1v7l1 1 1 24 1 1v49l-1 1v15l-1 1-2 28-10 57-14 53q-18 58-44 108-21 41-50 75-22 26-52 44t-65 30l-2 17-6 23-12 31q-23 50-59 88-43 46-105 73l-24 9-37 10-29 5-18 1-1 1h-13l-5 1q-24 53-59 95-33 37-81 58l-24 9-26 7-29 5-22 1-1 1h-37l-1-1h-12l-1-1h-8l-1-1-18-2-26-6q-26-7-47-18-24-12-42-28-16-14-28-31l-93 34q24 15 52 27l58 25 99 34 75 23 20-4 53-15 80-28q71-28 135-64 143-84 259-196 69-68 128-146 58-78 102-168 18-39 34-80l24-75 10-41 9-48 3-28 1-1v-8l1-1v-8l1-1 1-23 1-1v-17l1-1v-75l-1-1v-16l-1-1-1-20-1-1v-7l-4-19v-5l-4-17-8-25zm-2001 7-20 51 32 11zm1767 16-29 38-63 70-14 21q29 18 51 43l32-17 42-18 22-11q20-12 37-27 19-17 34-38l-14-19q-33-38-98-42ZM91 1128l-3 14v8l-1 1-1 22-1 1v16l-1 1v58l1 1 1 27 1 1 3 31 7 37 7 27 16 43 5-79 1-1v-9l1-1 1-16 4-21v-6l11-55 15-54q-38-19-67-46Zm131 76-13 53-10 56-2 24-1 1v9l-1 1v10l-1 1-1 26-1 1v16l-1 1v22l-1 1v65l1 1 1 35q32 31 76 49l14-34q-22-21-33-51l-8-30-1-12-1-1v-9l-1-1v-14l-1-1 1-45 1-1v-11l1-1v-8l1-1 3-28 11-56 13-53q-23-5-42-15zm101 93-10 49-2 21-1 1v8l-1 1v11l-1 1v43l1 1v8l2 11 4 14 2 1q20-43 43-83zm1576 1-8 28 1 3 20-16 1-2zm56 71-14 11q-16 12-26 30l-6 14-1 11-1 1 1 12 6 20q9 21 21 40-1 2 2 1 11-20 19-43l6-24 1-15 1-1-1-27-5-21zm-1064 41-23 30 32 33q75 77 158 147l17-12-17-20-11-16-16-30-9-24-5-18-3-17-31-12-31-15q-35-19-61-46Zm513 1-1 1h-38q-45 61-98 117l-73 72 37 12 39 8q62-115 145-209zm-661 58-1 1h-14l-1 1-14 1-36 8-66 22v85l1 1 1 23q57 54 128 96l1 1-2-19-1-1v-9l-1-1-1-35-1-1 1-37 1-1 1-20 1-1 1-13 5-27 14-48 10-23-5-2zm473 7-27 9-22 5-17 2-1 1h-7l-1 1-30 1-1 1-20-1q12 40 40 66 45-39 86-83zm-384 29-10 28-7 26-5 28-1 16-1 1v13l-1 1v38l1 1v13l1 1 1 17 5 29 9 35 9 4h3l9-4 70-36 52-31 31-21-79-73-82-82zm-625 120 6 32 14 46q16 45 38 86 43 78 104 140 83 85 190 147 43 24 97 38l49 10 23 2 1 1h11l1 1h4q-23-27-41-57h-20l-1-1h-12l-1-1-16-1-1-1-18-2-24-6q-33-10-54-31-25-23-38-56l-10-33-4-21-1-13-1-1v-7l-1-2-17-1-40-7-29-8-22-8q-43-18-75-46-28-24-46-56-11-20-18-43l-5-20-1-11-1-1v-8l-1-1v-22l1-1v-10l1-7q-23-8-42-20Zm928 27-20 16q47 39 100 73l21-53-1-2-24-5-35-11zm451 41-23 6-30 11-64 30-53 30-78 48 31 16q119-60 218-140zm95 13q-105 94-232 165l40 15h3l16-9 58-36q67-44 132-91l1-1 2-10 2-20q-10-8-22-13Zm-626 6q-61 44-129 80l41 12 36 9 44 9 20 2 1 1h11l1 1h37l1-1 18-1 35-7 17-5 1-1-55-39-77-60zm-422 8 6 29 20 65q45-8 85-22-60-32-111-72Zm1292 35-20 4-17 1-1 1h-11l-1 1h-40l-1-1h-10l-1-1-14-1-1-1h-5l-38 30-4 5-15 62-19 62v1l19-3 20-5 31-11q35-15 62-39 46-40 70-102 1-5-4-3Zm-1060 91q38 72 94 128l46-9 64-16 71-21 45-16h2v-26l-31 7-13 1-1 1h-9l-1 1h-12l-1 1h-38l-1-1h-13l-1-1-24-2-37-7-76-19zm-79 6q-47 18-101 29l17 42q19 41 41 78l4-1h22l1-1h15l1-1 24-1 1-1 19-1 1-1 16-1 1-1h7l1-1 21-2q-52-60-88-135 1-4-3-2Zm885 4-83 55q-3-1-2 2l25 4h6l1 1 17 1 1 1h11l3 1 21-62zm-408 2-3 3-1 19-1 4 30-12-19-12zm-653 35-10 2-26 1 3 22 7 25q6 15 15 27 11 13 29 20l29 7h3l-24-47-23-54q1-5-3-3Zm756 20-31 15-74 32q1 17 7 30l81-34 56-26-36-17zm130 51-89 44-105 45q19 18 47 29l33 10 16 3h7l1 1h9l1 1h40l1-1h9l8-2h6l22-5q42-12 71-38 26-27 45-61l-58-10-45-11-14-5zm-304 20-27 10-52 16-91 24 42 31 137-49-5-17-2-13zm-259 67-6 2-24 3-7 2h-6l-1 1h-6l-1 1h-6l-1 1h-6l-1 1-32 3-1 1h-9l-1 1-35 3q22 30 49 55l59-10 46-12 34-11q3 1 2-1l-39-36-5-4zm119 92-88 28-53 14q45 31 105 49l32 8 23 4 32 3 1 1 24 1 1 1h18l1 1h69l1-1h19l1-1 27-1 6-1-47-17-54-23q-63-29-118-66Z"/><path fill="#FFF" stroke="#FFF" d="m551 817 637 .5-51.5 18.5-10.5 2q4.5 12.3 6 28.5l1.5 1.5 51-7 33-7 25.5-7.5-10-20-3-9.5h77.5l1.5 1.5 1.5 2.5 8-4h128v1q-37.9 31.6-83.5 55.5l4.5 2.5 10 2h15q42.2-8.8 66.5-35.5 9.4-11.1 15.5-25.5h73l.5 2.5q-13.5 51.5-47.5 82.5-24.4 21.6-57 35l-29 9h-5l-7 2h-10l-1 1h-14l-1-1h-10l-11-2-22-7-21-11-27-21-23 8-47 12-38 7-38.5 4 1 3.5v23l-1 2.5 33.5 1 1 1 20 1 1 1 21 2 28 6 41 14 26 12 17 10h3q119.7-47.1 227.5-105l14-38.5 17-54.5h52.5q1.7 2.7 8 1h2l10.5 2-10 34.5 1.5-.5 37-24 5-1 11 5 1.5-.5.5 1.5 1.5-.5.5 1.5 1.5-.5.5 1.5 1.5-.5.5 1.5 1.5-.5q-.7 2.3 1.5 1.5l4 3 1.5-.5 1.5 2.5 2 1 1.5-.5 1.5 2.5 1.5-.5 1.5 2.5 1.5-.5 2.5 3.5 9 6 16.5 15.5 16.5 20.5 1.5.5q-2.2 1.3.5 2.5l1.5.5q-2.5 1.5 1 3l2.5 4.5 1.5.5v2l3 6.5 2 .5-.5 1.5 1.5.5-.5 1.5 1.5.5v2l2 6.5 2 .5v2q-1.1 3.3 1.5 2.5l-.5 1.5 1 7-7 27 1.5-.5 12.5-6 3 16.5 1 25-1 1v12l-4 22 .5 1.5q-2.6-.8-1.5 2.5l.5 1.5-3 2-30.5 20.5 2.5.5 23-4 1 2q-2.6-.8-1.5 2.5l-.5 2.5q-2.2-.7-1.5 1.5l-7 13 .5 1.5q-2.2-.7-1.5 1.5l-5 7 .5 1.5-2.5 1.5.5 1.5-2.5 1.5-11 14 .5 1.5-29 26-17.5 2-6.5 13q-2.2-.7-1.5 1.5h-2l-.5 1.5-1.5-.5-.5 1.5-1.5-.5-.5 1.5h-2l-4.5 1-.5 2h-2q-3.3-1.1-2.5 1.5l-1.5-.5q-7.5 4.2-17.5 5l-.5 2-3-1q-2.9 2.6-9 2l-2 2-4-1-1 1h-8l-3 2-1-1-121.5-.5 27-24-18.5-1.5-13.5 26-82-.5 19-34q-35.9-6.1-66.5-17.5-34.6-12.9-65-30l-35 14-68 24-106.5 33-1 9.5-1.5 1.5-378.5-.5 27.5-3.5 7-2h6l1-1 11-1 1.5-1.5-1-33-1-1v-8.5l-25.5 6-27 3-1 1h-11l-1 1h-37l-1-1h-11l-1-1-11-1-2.5 6.5v5l-6 32.5-72-.5 11-61-26-9.5-11.5 39-.5-253.5 19-41-19-14zm219 2-17 32 43 9 47 7 15-29-38-8-36-9zm163 30-14 24 4 1h27l1 1h70l1-1h29l1-1h9v-4l-5-18-2 1h-12l-1 1h-64l-1-1h-14l-1-1zm-301 35-5 8-10 24-12 35-23 85 23 8 10-37 16-49 24-63zm1106 0q-59 41-123 75l-17 46-33 76h40l1-1h26l4-1 58-45 3-3 6-15 18-52 11-42 7-37zm-967 44q14 29 32 55l13-48zm117 15-13 41-9 40 73-25 38-11 53-12 24-3 1-1h7l1-1q6 1 6 0v-27h-22l-1 1h-36l-1 1h-52l-1-1h-33l-1-1zm-182 17-20 58-13 45h9l1 1h36l1-1h9l1-1h7l17-3 11-3q-31-45-57-94 1-3-2-2Zm812 50-21 11-81 37 19 6 24 6 30 5 29-63zm-384 28-3 32-3 16 94-30 12-5-14-5-28-5-18-1-1-1h-13l-1-1zm-75 5-42 8-38 10-59 19-34 13q24 24 52 45l114-29 2-5 4-29 1-1v-6l1-1v-6l1-1v-6l1-1v-7l1-1q1-4-4-2Zm697.5 296 .5 1.5-5.5 7.5-5.5-4.5q-.9-3 3.5-1.5z"/></svg>
