<svg width="24" height="23.898" xmlns="http://www.w3.org/2000/svg" viewBox="0 0 24 23.898"><path fill="#C3C3CD" stroke="#C3C3CD" opacity=".945" d="m16.763 6.47.046.005-.046.005zm.142.01.025.005-.025.005zm1.93.772.01.02zm.051.041.02.03zm.061.051.03.041zm-15.184.02.005 1.498h-.01zm15.275.061.213.223zm.274.284.02.03zm.061.071.01.02zm.051.061.01.02zm.03.041.02.03zm.041.051.01.02zm-1.808.741.01.02zm.051.041.02.03zm.081.071.081.091zm.132.142.02.03zm.051.061.01.02zm.03.041.01.02zm2.123.386.005.025h-.01zm.041.274.005.025h-.01zm-16.433.041.005 1.752h-.01zm16.444.061.005.025h-.01zm-1.838.01.005.025h-.01zm.02.142.005.025h-.01zm0 .325.005.025h-.01zm-.01.091.005.025h-.01zm1.788.386.005.025h-.01zm-2.113.437-.01.02zm-.02.03-.02.03zm-.041.051-.01.02zm-.051.061-.041.051zm-.142.142-.03.041zm-.081.071-.01.02zm-.813.376.025.005-.025.005zm-13.143.02.005 4.068h-.01zm12.919.01.025.005-.025.005zm2.884.264-.01.02zm-.02.03-.01.02zm-.03.041-.01.02zm-.03.041-.01.02zm-.071.091-.01.02zm-.041.051-.03.041zm-.061.071-.041.051zm-.132.142-.051.061zm-.163.152-.041.051zm-.081.071-.03.041zm-.061.051-.02.03zm-.102.081-.01.02zm-.081.061-.01.02zm-.995.518.081.091zm-2.417.173.305.315zm-9.689.183.005.025h-.01zm12.807.345 1.686 1.696zm-2.255.335.498.508zm1.036 1.036.843.853zm2.956.538-.523.533-.005.015-.005-.015zm-16.372.03.005.706h-.01zm14.605.62.559.559.279-.269-.279.279z" stroke-width=".01"/><path fill="#FFF" stroke="#FFF" opacity=".996" d="m18.988 7.384.01.02zm.305.305.01.02zm.061.071.01.02zm-1.564.995.02.03zm.122.122.02.03zm-.152 2.631-.01.02zm1.503 1.077-.03.041zm-.203.203-.02.03zm-.102.091-.01.02zm-1.107.67q.034-.011.025.015l-.025.036-.122.041-.025-.041q.035.008.046-.02h.02z" stroke-width=".01"/><path fill="#FFF" stroke="#FFF" d="m13.32 0 .528.01.01.01h.091l.01.01h.071l.01.01.244.03.569.142.528.193q1.075.454 1.813 1.244l.066.076q1.734.247 2.676 1.285.258.29.437.66l.122.305.071.254.01.091.015.015.274.102.447.244q.389.256.696.594.626.69.965 1.666l.173.589.122.63.03.315.01.01v.102l.01.01v.163l.01.01v.437l-.01.01v.173l-.01.01-.01.213-.01.01v.081l-.01.01v.071l-.01.01-.02.183q.152.163.264.366l.193.416.102.325.071.335v.061l.03.152v.081l.01.01v.091l.01.01.01.345.01.01v.569l-.01.01v.213l-.01.01-.01.274-.01.01v.091l-.01.01v.091l-.01.01-.02.234-.01.01v.061l-.01.01-.051.355-.102.477-.142.528-.142.437q-.165.47-.366.904-.425.916-.975 1.706-.65.929-1.447 1.711-1.081 1.057-2.397 1.879-1.063.684-2.361 1.132l.025.015.559.102h.061l.01.01.264.03.01.01h.071l.01.01h.071l.01.01.376.03.01.01.254.01.01.01h.173l.01.01h.264l.01.01h.63l.01-.01.62-.01.01-.01h.173l.01-.01h.152l.01-.01.386-.02.01-.01h.102l.01-.01h.091l.01-.01h.091l.01-.01h.081l.091-.02h.081l.01-.01h.071l.01-.01.488-.061.366-.071h.051l.112-.03h.051l.711-.152.853-.213.625-.173v.747l-.036.005-.579.163-.965.234-.711.142h-.051l-.376.071-.345.041-.01.01-.325.03-.01.01H20.5l-.01.01h-.081l-.01.01h-.091l-.01.01-.345.02-.01.01h-.122l-.01.01h-.142l-.01.01h-.163l-.01.01-.477.01-.01.01h-1.158l-.01-.01h-.193l-.01-.01h-.152l-.01-.01-.345-.02-.01-.01-.427-.041-.01-.01h-.061l-.01-.01h-.061l-.01-.01h-.061l-.071-.02-.305-.041-.884-.183-.772-.203-.518.112-.305.041-.01.01h-.061l-.01.01h-.061l-.01.01h-.061l-.01.01-.244.02-.01.01-.315.02-.01.01h-.132l-.01.01h-.163l-.01.01-.731.01-.01-.01h-.254l-.01-.01-.284-.01-.01-.01h-.102l-.01-.01-.325-.03-.467-.091-.467-.142q-.474-.176-.873-.427l-.274-.183-.447-.355-.01.01h-.234l-.01.01h-.244l-.01-.01h-.223l-.01-.01h-.122l-.01-.01H7.26l-.01-.01-.152-.01-.01-.01h-.061l-.284-.051-.295-.071q-.593-.164-1.087-.427-1.256-.719-2.209-1.742-.484-.516-.873-1.127-.349-.549-.599-1.198l-.152-.447-.122-.457-.091-.467-.061-.488q-.602-.677-.884-1.676L.248 13.6l-.041-.315-.01-.01v-.071l-.01-.01-.01-.193-.01-.01v-.132l-.01-.01v-.203l-.01-.01v-.488l.01-.01v-.203l.01-.01v-.132l.01-.01v-.112l.01-.01.01-.173.01-.01.01-.152.01-.01.041-.305.051-.213v-.061l-.071-.122-.122-.295-.091-.355-.02-.203-.01-.01v-.63l.01-.01.01-.163.061-.345.132-.498.183-.508.274-.569q.695-1.231 1.676-2.184.426-.423.904-.792.425-.332.909-.604.353-.992 1.061-1.63.578-.539 1.432-.802l.508-.132.376-.071.295-.03.01-.01.213-.01.01-.01h.142l.01-.01h.67l.01.01h.152l.01.01h.112l.01.01.173.01.01.01h.071l.01.01.305.041.335.081h.041l.366.102q.684-.454 1.513-.762l.396-.122.213-.051.284-.051h.061l.01-.01.183-.01.01-.01h.142zm.046.721-.01.01h-.122l-.01.01h-.081l-.01.01h-.071l-.132.03h-.051l-.406.102q-.609.183-1.107.488.64.295 1.168.701l.295.051.305.081.589-.193.427-.112.427-.091h.051l.305-.061.142-.01.081-.02h.081l.01-.01h.081l.01-.01.203-.01.01-.01h.132l.01-.01.427-.01q-.518-.406-1.178-.66l-.447-.142-.366-.081-.274-.03-.01-.01h-.132l-.01-.01zm-5.088.731-.01.01h-.132l-.01.01-.203.01-.01.01h-.071l-.01.01-.305.041-.447.102-.396.122q-.538.203-.924.548-.315.254-.518.599l.548-.213.538-.183.559-.163.447-.112.528-.112h.051l.416-.081.416-.051.01-.01h.071l.01-.01.264-.02.01-.01h.102l.467-.355.02-.041-.295-.051-.244-.02-.01-.01h-.102l-.01-.01h-.132l-.01-.01zm2.336.366-.091.061v.01h.254zm5.261.559-.01.01h-.152l-.01.01-.223.01-.01.01-.173.01-.223.041h-.061l-.437.081-.223.051-.02.02.457.223q.061-.081.163-.122l.102-.041.163-.03h.163l.01.01.132.01q.355.081.691.203.589.203 1.087.508l.01.01-.041-.213-.071-.203q-.122-.305-.305-.538l-.03-.041-.254-.01-.01-.01zm1.94.203.132.355.071.305.03.254.01.01v.091l.01.01.01.355.345.325.437-.081.254-.02.01-.01h.122l.01-.01h.528l.01.01q-.132-.396-.386-.67-.589-.67-1.595-.924Zm-7.851.01-.01.01-.386.01-.061.03q-.67.548-1.3 1.138l.041.01.203.01.01.01h.081l.295.051h.061l.335.071h.061l.223-.051.335-.041.01-.01.467-.041q.741-.62 1.645-1.077l-.02-.02-.213-.02-.01-.01-.274-.02-.01-.01h-.112l-.01-.01h-.122l-.01-.01h-.142l-.01-.01h-.213l-.01-.01zm-1.798.193-.599.122-.488.122-.873.274-.67.264q-.396.173-.752.366l-.03.03-.091.427.01.03.203-.112.406-.173.548-.173.305-.071.345-.061.213-.02.01-.01h.081l.01-.01h.102l.01-.01.244-.01 1.066-.975zm5.434.315v.03q.203.234.366.528l.193.376.01.041.396.081-.01-.142-.01-.01v-.091l-.01-.01v-.132l-.01-.01v-.223q-.416-.264-.924-.437Zm-.914.081q-.579.254-1.077.589l.041.01h.203l.01.01h.152l.01.01.376.02.01.01.295.02.01.01.173.01.01.01h.071l.01.01.295.03q-.223-.386-.528-.691l-.041-.051zm3.027.295.02.03.142.122q.518.488.843 1.178l.051.03.152.061h.03l.071-.061q.223-.213.305-.559-.68-.528-1.615-.802Zm-.416.599.03.274.295.081-.061-.081zm-11.366.386q-.599.416-1.097.924-.904.873-1.544 2.021l-.223.467-.163.447-.122.457-.051.284-.01.183-.01.01.01.234q.295-.762.802-1.32.244-.284.569-.498.223-.163.518-.254l.041-.244.102-.416q.081-.315.203-.579l.223-.427q.163-.254.355-.457l.284-.274.081-.081v-.213l.01-.01.01-.223.01-.01zm3.534.01L6.429 5.475q-.457.427-.853.914l-.071.071H4.154l-.091-.234-.071-.284v-.041l-.01-.02q-.244.264-.386.64-.142.355-.223.782l.041.01.183.01.163.03v1.534q-.264.427-.508.894v.132l.01.01.02.284.01.01.041.366.02.01q.173-.447.396-.843h.01v1.767l-.132.376.102.03.03.01v4.073l-.183-.01-.061-.02-.102.234.041.01.152.01.01.01h.102l.01.01.03.01v.711l-.02-.01-.234-.01-.01-.01h-.071l-.193-.03v.193l.03.152.061.193q.091.223.234.396.498.569 1.473.67l.01.01-.02-.284-.01-.01v-.061l-.041-.234-.091-.305-.102-.183.792-.01.051.142.071.295.03.244.01.01v.071l.01.01.02.315.01.02.203-.01-.193-.64-.183-.782v-3.23l.01-.01v-.081l.01-.01h.711l-.03.366-.01.01v.091l-.01.01v.102l-.01.01.01.102.163-.061.406-.112.315-.061.142-.01.01-.01h.102l.01-.01h.366l.01.01h.091l.01.01.122.01.152.041q.163-.264.376-.498l1.056.01-.041.03q.274.284.67.437v-.071l.01-.01.01-.335.01-.01q-.01-.051.01-.051h.711l-.01.071v.112l-.01.01v.163l-.01.01v.305l.02.01h.112l.01.01.396-.01.01-.01.142-.01.203-.041q.406-.102.741-.274l-.01-.02-.518-.173-.345-.142 3.555-.01.315.335-.061.051q-.985.945-1.706 2.153l-.01.02.203-.071.234-.112.538-.325q.528-.366.985-.813l.223-.234.142-.142.508.518-.163.173q-.427.437-.904.813-.376.284-.782.528-.335.193-.711.335l-.447.132-.234.041h-.061q-.213.345-.335.772l.163-.081 1.046-.64.67-.355q.366-.183.782-.315l.376-.091.122-.01.01-.01h.091l.01-.01h.335l.295.051.345-.366-.041-.244-.041-.142.01-.051.843.853.02.477.071.03h.03l.203-.183.579.569.295-.284.213-.03.234-.051-.041-.203-.03-.081.01-.03.538-.538h.01l.152.416.041.193q.295-.112.518-.295.274-.254.467-.599.234-.416.406-.884l.142-.447.132-.579.03-.254.01-.01v-.071l.01-.01.01-.213.01-.01v-.203l.01-.01-.01-.376-.01-.01v-.102l-.01-.01-.01-.142-.01-.03q-.254.274-.569.467l-.325.173-.274.112-.406.193.132.376.041.203.01.234.01.01-.01.264-.01.01-.01.142-.051.234-.071.223q-.163.427-.406.782l-.01.01-1.706-1.696.01-.132.01-.01v-.122l.01-.01v-.132l.01-.01v-.122l.01-.01.01-.173.051-.295.03-.091h.02l.01-.02h.02l.01-.02h.02l.01-.02h.02l.142-.102.03-.041h.02l.112-.091.071-.081h.02q.173-.142.305-.325l.051-.051-.01-.01.02-.01.03-.03-.01-.01.02-.01.112-.152q.03-.02.01-.03l.02-.01.03-.051q.03-.02.01-.03l.02-.01.03-.051v-.02l.02-.01.01-.02v-.02l.02-.01.02-.041v-.02l.02-.01.122-.254v-.02l.02-.01.081-.193-.01-.02.02-.01.061-.183-.01-.02.02-.01.061-.234-.01-.03.03-.061-.01-.041.02-.02.02-.183.01-.01q.01-.051-.01-.061l.02-.03v-.061l.041-.081.071-.234.02-.102v-.071l.01-.01v-.122l-.132.02q-.03-.01-.01-.02l-.03-.295q-.041-.02-.01-.03l-.03-.173q-.041-.02-.01-.03l-.02-.071q.01-.051-.01-.041v-.01l-.01-.041.03-.01.193-.02-.03-.183-.051-.183-.152-.396q-.183-.386-.427-.701l-.01.437-.01.041-.041-.051-.02-.02v-.01l-.02-.03-.03-.03v-.01l-.03-.03v-.01l-.03-.041-.041-.041v-.01l-.112-.132-.315-.325-.132-.102-.041-.041-.01.01-.01-.01-.03-.03-.041-.03.163-.163-.02-.152q-.284-.254-.609-.457h-.02l.102.477q.01.041-.01.051l-.01-.02-.234-.112h-.02l-.01-.02-.041-.01h-.02l-.01-.02-.122-.051-.02.01-.01-.02-.223-.071-.02.01v-.02h-.041l-.102-.386-.112-.345-.234-.112-.051.041.03.254.01.01v.081l.01.01.02.345-.061-.01q-.051-.01-.061.01l-.02-.02-.264-.01-.01-.01h-1.706l-.041-.305-.599.041-.102.254-.01.01h-.823l.102-.183.01-.02-.579.061-.173.03.02.112h-2.285q.498-.376 1.158-.589-.254-.274-.569-.467-.447-.274-.965-.467-.609.609-1.087 1.341.315.061.569.183H6.429l.061-.315.132-.376q.183-.406.457-.711.295-.345.701-.569l-.071-.02zm3.474.01v.01l.193.091.386.223q.305.193.569.437.203.193.376.427l.457-.061.01-.01h.071l.01-.01.366-.03.01-.01h.102l.01-.01.234-.01.01-.01v-.315l-.01-.01V5.11l-.081-.376-.01-.02-.355-.051-.01-.01-.345-.041-.01-.01h-.071l-.01-.01h-.071l-.01-.01h-.071l-.01-.01-.274-.02-.01-.01-.355-.02-.01-.01h-.132l-.01-.01h-.173l-.01-.01zm-4.682.122q-.955.203-1.625.691.03.488.183.873.68-.823 1.463-1.554zm2.956.071q-.488.122-.884.325-.325.173-.579.406-.386.345-.559.904l.01.01.122-.041.325-.061.163-.01.01-.01h.132l.01-.01h.274l.68-.945.457-.538-.091-.03zm5.21.203.03.183v.091l.01.01.01.305.345-.02-.061-.244-.041-.254zm4.977 0-.01.01h-.142l-.01.01-.193.01-.122.02q.173.274.315.589.152.325.254.711.213-.325.335-.741l.071-.325.02-.254-.122-.01-.01-.01h-.132l-.01-.01zm-1.239.244q-.203.061-.355.163-.03-.01-.02.02l.325.163.427.254q-.132-.305-.325-.559 0-.041-.051-.041Zm2.468 0-.071.406-.132.427q-.193.488-.488.894l.03.061q.203.203.376.457.223.295.386.66l.183.467.091.345.041.234.051.01h.142l.01.01.193.01.406.071.386.112.355.163.01-.041v-.132l.01-.01v-.528l-.01-.01v-.122l-.02-.102V8.42l-.01-.01-.02-.203-.061-.335-.152-.579q-.142-.457-.355-.833-.223-.406-.528-.731-.345-.376-.823-.609Zm-5.139.041.041.203.254-.03.142-.03zm.284.894-.102.02.01.091.02.01.091-.102q.01-.03-.02-.02ZM3.26 8.024l-.01.061v.102l-.01.01v.122l-.01.01.01.03.193-.325-.03-.01zm-.752.234-.274.213q-.406.386-.68.914l-.254.559-.213.65.071.102q.163.173.355.315l.305.203h.02q.284-.823.67-1.544l-.01-.295-.01-.01v-.813l.01-.01v-.193l.01-.01zm18.566 1.534v.152l-.01.01v.102l-.02.081v.061l-.081.305.284.061.274.102q.315.142.559.376l.081.091.152-.376.152-.528-.173-.132q-.203-.112-.437-.183l-.366-.081-.234-.02-.01-.01h-.122zm1.93 1.158q-.163.488-.406.894l.081.244.071.305.02.183.01.01v.071l.01.01.01.244.01.01v.498l-.01.01v.152l-.01.01-.02.284-.102.579-.142.538q-.183.589-.447 1.097-.213.416-.508.762-.223.264-.528.447t-.66.305l-.02.173-.061.234-.122.315q-.234.508-.599.894-.437.467-1.066.741l-.244.091-.376.102-.295.051-.183.01-.01.01h-.132l-.051.01q-.244.538-.599.965-.335.376-.823.589l-.244.091-.264.071-.295.051-.223.01-.01.01h-.376l-.01-.01h-.122l-.01-.01h-.081l-.01-.01-.183-.02-.264-.061q-.264-.071-.477-.183-.244-.122-.427-.284-.163-.142-.284-.315l-.945.345q.244.152.528.274l.589.254 1.006.345.762.234.203-.041.538-.152.813-.284q.721-.284 1.371-.65 1.452-.853 2.631-1.991.701-.691 1.3-1.483.589-.792 1.036-1.706.183-.396.345-.813l.244-.762.102-.416.091-.488.03-.284.01-.01v-.081l.01-.01v-.081l.01-.01.01-.234.01-.01v-.173l.01-.01v-.762l-.01-.01v-.163l-.01-.01-.01-.203-.01-.01v-.071l-.041-.193v-.051l-.041-.173-.081-.254zm-20.323.071-.203.518.325.112zm17.947.163-.295.386-.64.711-.142.213q.295.183.518.437l.325-.173.427-.183.223-.112q.203-.122.376-.274.193-.173.345-.386l-.142-.193q-.335-.386-.995-.427Zm-19.704.273-.03.142v.081l-.01.01-.01.223-.01.01v.163l-.01.01v.589l.01.01.01.274.01.01.03.315.071.376.071.274.163.437.051-.802.01-.01v-.091l.01-.01.01-.163.041-.213v-.061l.112-.559.152-.548q-.386-.193-.68-.467Zm1.331.772-.132.538-.102.569-.02.244-.01.01v.091l-.01.01v.102l-.01.01-.01.264-.01.01v.163l-.01.01v.223l-.01.01v.66l.01.01.01.355q.325.315.772.498l.142-.345q-.223-.213-.335-.518l-.081-.305-.01-.122-.01-.01v-.091l-.01-.01v-.142l-.01-.01.01-.457.01-.01v-.112l.01-.01v-.081l.01-.01.03-.284.112-.569.132-.538q-.234-.051-.427-.152zm1.026.945-.102.498-.02.213-.01.01v.081l-.01.01v.112l-.01.01v.437l.01.01v.081l.02.112.041.142.02.01q.203-.437.437-.843zm16.007.01-.081.284.01.03.203-.163.01-.02zm.569.721-.142.112q-.163.122-.264.305l-.061.142-.01.112-.01.01.01.122.061.203q.091.213.213.406-.01.02.02.01.112-.203.193-.437l.061-.244.01-.152.01-.01-.01-.274-.051-.213zm-10.807.416-.234.305.325.335q.762.782 1.605 1.493l.173-.122-.173-.203-.112-.163-.163-.305-.091-.244-.051-.183-.03-.173-.315-.122-.315-.152q-.355-.193-.62-.467Zm5.21.01-.01.01h-.386q-.457.62-.995 1.188l-.741.731.376.122.396.081q.63-1.168 1.473-2.123zm-6.713.589-.01.01h-.142l-.01.01-.142.01-.366.081-.67.223v.863l.01.01.01.234q.579.548 1.3.975l.01.01-.02-.193-.01-.01v-.091l-.01-.01-.01-.355-.01-.01.01-.376.01-.01.01-.203.01-.01.01-.132.051-.274.142-.488.102-.234-.051-.02zm4.804.071-.274.091-.223.051-.173.02-.01.01H11.6l-.01.01-.305.01-.01.01-.203-.01q.122.406.406.67.457-.396.873-.843zm-3.9.295-.102.284-.071.264-.051.284-.01.163-.01.01v.132l-.01.01v.386l.01.01v.132l.01.01.01.173.051.295.091.355.091.041h.03l.091-.041.711-.366.528-.315.315-.213-.802-.741-.833-.833zm-6.348 1.219.061.325.142.467q.163.457.386.873.437.792 1.056 1.422.843.863 1.93 1.493.437.244.985.386l.498.102.234.02.01.01h.112l.01.01h.041q-.234-.274-.416-.579h-.203l-.01-.01h-.122l-.01-.01-.163-.01-.01-.01-.183-.02-.244-.061q-.335-.102-.548-.315-.254-.234-.386-.569l-.102-.335-.041-.213-.01-.132-.01-.01v-.071l-.01-.02-.173-.01-.406-.071-.295-.081-.223-.081q-.437-.183-.762-.467-.284-.244-.467-.569-.112-.203-.183-.437l-.051-.203-.01-.112-.01-.01v-.081l-.01-.01v-.223l.01-.01v-.102l.01-.071q-.234-.081-.427-.203Zm9.425.274-.203.163q.477.396 1.016.741l.213-.538-.01-.02-.244-.051-.355-.112zm4.581.416-.234.061-.305.112-.65.305-.538.305-.792.488.315.163q1.209-.609 2.214-1.422zm.965.132q-1.066.955-2.356 1.676l.406.152h.03l.163-.091.589-.366q.68-.447 1.341-.924l.01-.01.02-.102.02-.203q-.102-.081-.223-.132Zm-6.358.061q-.62.447-1.31.813l.416.122.366.091.447.091.203.02.01.01h.112l.01.01h.376l.01-.01.183-.01.355-.071.173-.051.01-.01-.559-.396-.782-.609zm-4.286.081.061.295.203.66q.457-.081.863-.223-.609-.325-1.127-.731Zm13.122.355-.203.041-.173.01-.01.01h-.112l-.01.01h-.406l-.01-.01h-.102l-.01-.01-.142-.01-.01-.01h-.051l-.386.305-.041.051-.152.63-.193.63v.01l.193-.03.203-.051.315-.112q.355-.152.63-.396.467-.406.711-1.036.01-.051-.041-.03Zm-10.766.924q.386.731.955 1.3l.467-.091.65-.163.721-.213.457-.163h.02v-.264l-.315.071-.132.01-.01.01h-.091l-.01.01h-.122l-.01.01h-.386l-.01-.01h-.132l-.01-.01-.244-.02-.376-.071-.772-.193zm-.802.061q-.477.183-1.026.295l.173.427q.193.416.416.792l.041-.01h.223l.01-.01h.152l.01-.01.244-.01.01-.01.193-.01.01-.01.163-.01.01-.01h.071l.01-.01.213-.02q-.528-.609-.894-1.371.01-.041-.03-.02Zm8.989.041-.843.559q-.03-.01-.02.02l.254.041h.061l.01.01.173.01.01.01h.112l.03.01.213-.63zm-4.144.02-.03.03-.01.193-.01.041.305-.122-.193-.122zm-6.632.355-.102.02-.264.01.03.223.071.254q.061.152.152.274.112.132.295.203l.295.071h.03l-.244-.477-.234-.548q.01-.051-.03-.03Zm7.678.203-.315.152-.752.325q.01.173.071.305l.823-.345.569-.264-.366-.173zm1.32.518-.904.447-1.066.457q.193.183.477.295l.335.102.163.03h.071l.01.01h.091l.01.01h.406l.01-.01h.091l.081-.02h.061l.223-.051q.427-.122.721-.386.264-.274.457-.62l-.589-.102-.457-.112-.142-.051zm-3.088.203-.274.102-.528.163-.924.244.427.315 1.391-.498-.051-.173-.02-.132zm-2.631.68-.061.02-.244.03-.071.02h-.061l-.01.01h-.061l-.01.01h-.061l-.01.01h-.061l-.01.01-.325.03-.01.01H8.39l-.01.01-.355.03q.223.305.498.559l.599-.102.467-.122.345-.112q.03.01.02-.01l-.396-.366-.051-.041zm1.209.934-.894.284-.538.142q.457.315 1.066.498l.325.081.234.041.325.03.01.01.244.01.01.01h.183l.01.01h.701l.01-.01h.193l.01-.01.274-.01.061-.01-.477-.173-.548-.234q-.64-.295-1.198-.67Z" stroke-width=".01"/><path fill="#FFF" stroke="#FFF" d="m5.596 8.298 6.47.005-.523.188-.107.02q.046.125.061.289l.015.015.518-.071.335-.071.259-.076-.102-.203-.03-.096h.787l.015.015.015.025.081-.041h1.3v.01q-.385.321-.848.564l.046.025.102.02h.152q.429-.089.675-.361.095-.113.157-.259h.741l.005.025q-.137.523-.482.838-.248.219-.579.355l-.295.091h-.051l-.071.02h-.102l-.01.01h-.142l-.01-.01h-.102l-.112-.02-.223-.071-.213-.112-.274-.213-.234.081-.477.122-.386.071-.391.041.01.036v.234l-.01.025.34.01.01.01.203.01.01.01.213.02.284.061.416.142.264.122.173.102h.03q1.216-.478 2.311-1.066l.142-.391.173-.554h.533q.017.027.081.01h.02l.107.02-.102.35.015-.005.376-.244.051-.01.112.051.015-.005.005.015.015-.005.005.015.015-.005.005.015.015-.005.005.015.015-.005q-.007.023.015.015l.041.03.015-.005.015.025.02.01.015-.005.015.025.015-.005.015.025.015-.005.025.036.091.061.168.157.168.208.015.005q-.022.013.005.025l.015.005q-.025.015.01.03l.025.046.015.005v.02l.03.066.02.005-.005.015.015.005-.005.015.015.005v.02l.02.066.02.005v.02q-.011.034.015.025l-.005.015.01.071-.071.274.015-.005.127-.061.03.168.01.254-.01.01v.122l-.041.223.005.015q-.026-.008-.015.025l.005.015-.03.02-.31.208.025.005.234-.041.01.02q-.026-.008-.015.025l-.005.025q-.022-.007-.015.015l-.071.132.005.015q-.022-.007-.015.015l-.051.071.005.015-.025.015.005.015-.025.015-.112.142.005.015-.295.264-.178.02-.066.132q-.022-.007-.015.015h-.02l-.005.015-.015-.005-.005.015-.015-.005-.005.015h-.02l-.046.01-.005.02h-.02q-.034-.011-.025.015l-.015-.005q-.076.043-.178.051l-.005.02-.03-.01q-.029.026-.091.02l-.02.02-.041-.01-.01.01h-.081l-.03.02-.01-.01-1.234-.005.274-.244-.188-.015-.137.264-.833-.005.193-.345q-.365-.062-.675-.178-.351-.131-.66-.305l-.355.142-.691.244-1.082.335-.01.096-.015.015-3.844-.005.279-.036.071-.02h.061l.01-.01.112-.01.015-.015-.01-.335-.01-.01v-.086l-.259.061-.274.03-.01.01h-.112l-.01.01h-.376l-.01-.01h-.112l-.01-.01-.112-.01-.025.066v.051l-.061.33-.731-.005.112-.62-.264-.096-.117.396-.005-2.575.193-.416-.193-.142zm2.224.02-.173.325.437.091.477.071.152-.295-.386-.081-.366-.091zm1.656.305-.142.244.041.01h.274l.01.01h.711l.01-.01h.295l.01-.01h.091v-.041l-.051-.183-.02.01h-.122l-.01.01h-.65l-.01-.01h-.142l-.01-.01zm-3.057.355-.051.081-.102.244-.122.355-.234.863.234.081.102-.376.163-.498.244-.64zm11.233 0q-.599.416-1.249.762l-.173.467-.335.772h.406l.01-.01h.264l.041-.01.589-.457.03-.03.061-.152.183-.528.112-.427.071-.376zm-9.821.447q.142.295.325.559l.132-.488zm1.188.152-.132.416-.091.406.741-.254.386-.112.538-.122.244-.03.01-.01h.071l.01-.01q.061.01.061 0v-.274h-.223l-.01.01h-.366l-.01.01H9.72l-.01-.01h-.335l-.01-.01zm-1.848.173-.203.589-.132.457h.091l.01.01h.366l.01-.01h.091l.01-.01h.071l.173-.03.112-.03q-.315-.457-.579-.955.01-.03-.02-.02Zm8.247.508-.213.112-.823.376.193.061.244.061.305.051.295-.64zm-3.9.284-.03.325-.03.163.955-.305.122-.051-.142-.051-.284-.051-.183-.01-.01-.01h-.132l-.01-.01zm-.762.051-.427.081-.386.102-.599.193-.345.132q.244.244.528.457l1.158-.295.02-.051.041-.295.01-.01v-.061l.01-.01v-.061l.01-.01v-.061l.01-.01v-.071l.01-.01q.01-.041-.041-.02Zm7.084 3.006.005.015-.056.076-.056-.046q-.009-.03.036-.015z" stroke-width=".01"/></svg>
